<?xml version="1.0" encoding="UTF-8" standalone="no"?>
<!DOCTYPE svg PUBLIC "-//W3C//DTD SVG 1.1//EN"
 "http://www.w3.org/Graphics/SVG/1.1/DTD/svg11.dtd">
<!-- Generated by graphviz version 2.43.0 (0)
 -->
<!-- Title: user_system Pages: 1 -->
<svg width="1031pt" height="310pt"
 viewBox="0.00 0.00 1031.49 310.29" xmlns="http://www.w3.org/2000/svg" xmlns:xlink="http://www.w3.org/1999/xlink">
<g id="graph0" class="graph" transform="scale(1 1) rotate(0) translate(4 306.29)">
<title>user_system</title>
<polygon fill="white" stroke="transparent" points="-4,4 -4,-306.29 1027.49,-306.29 1027.49,4 -4,4"/>
<g id="clust1" class="cluster">
<title>cluster_user</title>
<polygon fill="none" stroke="black" points="95.49,-8 95.49,-186.29 505.49,-186.29 505.49,-8 95.49,-8"/>
<text text-anchor="middle" x="300.49" y="-171.09" font-family="Times,serif" font-size="14.00">User</text>
</g>
<g id="clust2" class="cluster">
<title>cluster_system</title>
<polygon fill="none" stroke="black" points="513.49,-8 513.49,-294.29 1015.49,-294.29 1015.49,-8 513.49,-8"/>
<text text-anchor="middle" x="764.49" y="-279.09" font-family="Times,serif" font-size="14.00">System</text>
</g>
<!-- start -->
<g id="node1" class="node">
<title>start</title>
<ellipse fill="none" stroke="black" cx="179.49" cy="-122.15" rx="33.29" ry="33.29"/>
<text text-anchor="middle" x="179.49" y="-118.45" font-family="Times,serif" font-size="14.00">start</text>
</g>
<!-- open_login_page -->
<g id="node3" class="node">
<title>open_login_page</title>
<polygon fill="none" stroke="black" points="240.99,-52 103.99,-52 103.99,-16 240.99,-16 240.99,-52"/>
<text text-anchor="middle" x="172.49" y="-30.3" font-family="Times,serif" font-size="14.00">Open Login Page</text>
</g>
<!-- start&#45;&gt;open_login_page -->
<g id="edge1" class="edge">
<title>start&#45;&gt;open_login_page</title>
<path fill="none" stroke="black" d="M176.88,-89.07C176.17,-80.32 175.4,-70.93 174.72,-62.47"/>
<polygon fill="black" stroke="black" points="178.19,-62.05 173.9,-52.36 171.22,-62.61 178.19,-62.05"/>
</g>
<!-- end -->
<g id="node2" class="node">
<title>end</title>
<ellipse fill="none" stroke="black" cx="469.49" cy="-122.15" rx="27.9" ry="27.9"/>
<text text-anchor="middle" x="469.49" y="-118.45" font-family="Times,serif" font-size="14.00">end</text>
</g>
<!-- display_login_page -->
<g id="node6" class="node">
<title>display_login_page</title>
<polygon fill="none" stroke="black" points="674.99,-263.29 521.99,-263.29 521.99,-227.29 674.99,-227.29 674.99,-263.29"/>
<text text-anchor="middle" x="598.49" y="-241.59" font-family="Times,serif" font-size="14.00">Display Login Page</text>
</g>
<!-- open_login_page&#45;&gt;display_login_page -->
<g id="edge6" class="edge">
<title>open_login_page&#45;&gt;display_login_page</title>
<path fill="none" stroke="black" d="M103.82,-41.71C73.04,-48.54 39.46,-62.12 20.49,-89 -4.45,-124.33 -8.52,-154.23 20.49,-186.29 52.77,-221.98 358.2,-236.69 511.54,-241.87"/>
<polygon fill="black" stroke="black" points="511.75,-245.38 521.87,-242.21 511.99,-238.38 511.75,-245.38"/>
</g>
<!-- merge_node -->
<g id="node4" class="node">
<title>merge_node</title>
<polygon fill="none" stroke="black" points="327.49,-140.15 230.96,-122.15 327.49,-104.15 424.01,-122.15 327.49,-140.15"/>
<text text-anchor="middle" x="327.49" y="-118.45" font-family="Times,serif" font-size="14.00">Merge Node</text>
</g>
<!-- enter_username_and_password -->
<g id="node5" class="node">
<title>enter_username_and_password</title>
<polygon fill="none" stroke="black" points="497.99,-52 258.99,-52 258.99,-16 497.99,-16 497.99,-52"/>
<text text-anchor="middle" x="378.49" y="-30.3" font-family="Times,serif" font-size="14.00">Enter Username and Password</text>
</g>
<!-- merge_node&#45;&gt;enter_username_and_password -->
<g id="edge2" class="edge">
<title>merge_node&#45;&gt;enter_username_and_password</title>
<path fill="none" stroke="black" d="M336.6,-105.75C344.01,-93.24 354.6,-75.34 363.29,-60.68"/>
<polygon fill="black" stroke="black" points="366.32,-62.43 368.4,-52.04 360.29,-58.86 366.32,-62.43"/>
</g>
<!-- decision_node -->
<g id="node7" class="node">
<title>decision_node</title>
<polygon fill="none" stroke="black" points="802.49,-263.29 693.23,-245.29 802.49,-227.29 911.74,-245.29 802.49,-263.29"/>
<text text-anchor="middle" x="802.49" y="-241.59" font-family="Times,serif" font-size="14.00">Decision Node</text>
</g>
<!-- enter_username_and_password&#45;&gt;decision_node -->
<g id="edge9" class="edge">
<title>enter_username_and_password&#45;&gt;decision_node</title>
<path fill="none" stroke="black" d="M262.72,-52.06C168.37,-66.23 50.11,-84.74 46.49,-89 18.47,-121.94 16.91,-154.75 46.49,-186.29 95.08,-238.11 613.83,-219.95 684.49,-227.29 702.64,-229.18 722.29,-231.79 740.25,-234.39"/>
<polygon fill="black" stroke="black" points="739.91,-237.88 750.32,-235.87 740.93,-230.95 739.91,-237.88"/>
<text text-anchor="middle" x="91.99" y="-118.45" font-family="Times,serif" font-size="14.00">To Sequence</text>
</g>
<!-- display_login_page&#45;&gt;merge_node -->
<g id="edge7" class="edge">
<title>display_login_page&#45;&gt;merge_node</title>
<path fill="none" stroke="black" d="M540.48,-227.26C508.06,-216.94 467.31,-202.64 432.49,-186.29 405.48,-173.62 376.55,-155.88 355.91,-142.43"/>
<polygon fill="black" stroke="black" points="357.6,-139.35 347.32,-136.77 353.75,-145.2 357.6,-139.35"/>
</g>
<!-- invalid_username_and_password -->
<g id="node8" class="node">
<title>invalid_username_and_password</title>
<polygon fill="none" stroke="black" points="768.99,-140.15 521.99,-140.15 521.99,-104.15 768.99,-104.15 768.99,-140.15"/>
<text text-anchor="middle" x="645.49" y="-118.45" font-family="Times,serif" font-size="14.00">Invalid Username and password</text>
</g>
<!-- decision_node&#45;&gt;invalid_username_and_password -->
<g id="edge3" class="edge">
<title>decision_node&#45;&gt;invalid_username_and_password</title>
<path fill="none" stroke="black" d="M784.17,-230.16C757.59,-209.65 707.99,-171.38 675.88,-146.6"/>
<polygon fill="black" stroke="black" points="677.77,-143.64 667.72,-140.3 673.5,-149.18 677.77,-143.64"/>
<text text-anchor="middle" x="777.49" y="-198.09" font-family="Times,serif" font-size="14.00">Failed</text>
</g>
<!-- user_has_successfully_login -->
<g id="node9" class="node">
<title>user_has_successfully_login</title>
<polygon fill="none" stroke="black" points="1007.99,-140.15 786.99,-140.15 786.99,-104.15 1007.99,-104.15 1007.99,-140.15"/>
<text text-anchor="middle" x="897.49" y="-118.45" font-family="Times,serif" font-size="14.00">User Has Successfully Login</text>
</g>
<!-- decision_node&#45;&gt;user_has_successfully_login -->
<g id="edge4" class="edge">
<title>decision_node&#45;&gt;user_has_successfully_login</title>
<path fill="none" stroke="black" d="M814.52,-228.95C830.42,-208.67 858.63,-172.69 877.7,-148.38"/>
<polygon fill="black" stroke="black" points="880.61,-150.34 884.02,-140.32 875.1,-146.02 880.61,-150.34"/>
<text text-anchor="middle" x="869.49" y="-198.09" font-family="Times,serif" font-size="14.00">Success</text>
</g>
<!-- invalid_username_and_password&#45;&gt;merge_node -->
<g id="edge8" class="edge">
<title>invalid_username_and_password&#45;&gt;merge_node</title>
<path fill="none" stroke="black" d="M626.16,-140.19C590.35,-171.35 511.02,-229.79 441.49,-206.79 404.8,-194.66 370.3,-165.65 349.06,-144.98"/>
<polygon fill="black" stroke="black" points="351.41,-142.38 341.86,-137.79 346.46,-147.33 351.41,-142.38"/>
</g>
<!-- display_home_page -->
<g id="node10" class="node">
<title>display_home_page</title>
<polygon fill="none" stroke="black" points="825.99,-52 670.99,-52 670.99,-16 825.99,-16 825.99,-52"/>
<text text-anchor="middle" x="748.49" y="-30.3" font-family="Times,serif" font-size="14.00">Display Home Page</text>
</g>
<!-- user_has_successfully_login&#45;&gt;display_home_page -->
<g id="edge5" class="edge">
<title>user_has_successfully_login&#45;&gt;display_home_page</title>
<path fill="none" stroke="black" d="M868.05,-104.13C844.86,-90.72 812.34,-71.92 787.07,-57.31"/>
<polygon fill="black" stroke="black" points="788.53,-54.11 778.12,-52.13 785.02,-60.17 788.53,-54.11"/>
</g>
<!-- display_home_page&#45;&gt;end -->
<g id="edge10" class="edge">
<title>display_home_page&#45;&gt;end</title>
<path fill="none" stroke="black" d="M670.73,-43.47C622.49,-50.9 560.25,-64.5 509.49,-89 505.4,-90.97 501.36,-93.43 497.51,-96.1"/>
<polygon fill="black" stroke="black" points="495.31,-93.37 489.43,-102.19 499.53,-98.96 495.31,-93.37"/>
</g>
</g>
</svg>
